<svg id="visual" viewBox="0 0 900 600" width="900" height="600" xmlns="http://www.w3.org/2000/svg" xmlns:xlink="http://www.w3.org/1999/xlink" version="1.1"><rect x="0" y="0" width="900" height="600" fill="#090909"></rect><path d="M562 600L552 600L552 571L581 571L581 543L603 543L603 514L559 514L559 486L589 486L589 457L559 457L559 429L575 429L575 400L564 400L564 371L552 371L552 343L613 343L613 314L556 314L556 286L580 286L580 257L581 257L581 229L606 229L606 200L566 200L566 171L577 171L577 143L587 143L587 114L614 114L614 86L570 86L570 57L611 57L611 29L588 29L588 0L900 0L900 29L900 29L900 57L900 57L900 86L900 86L900 114L900 114L900 143L900 143L900 171L900 171L900 200L900 200L900 229L900 229L900 257L900 257L900 286L900 286L900 314L900 314L900 343L900 343L900 371L900 371L900 400L900 400L900 429L900 429L900 457L900 457L900 486L900 486L900 514L900 514L900 543L900 543L900 571L900 571L900 600L900 600Z" fill="#2bbf1a"></path><path d="M629 600L662 600L662 571L647 571L647 543L633 543L633 514L633 514L633 486L603 486L603 457L655 457L655 429L651 429L651 400L607 400L607 371L643 371L643 343L614 343L614 314L614 314L614 286L634 286L634 257L645 257L645 229L632 229L632 200L604 200L604 171L619 171L619 143L637 143L637 114L638 114L638 86L628 86L628 57L640 57L640 29L618 29L618 0L900 0L900 29L900 29L900 57L900 57L900 86L900 86L900 114L900 114L900 143L900 143L900 171L900 171L900 200L900 200L900 229L900 229L900 257L900 257L900 286L900 286L900 314L900 314L900 343L900 343L900 371L900 371L900 400L900 400L900 429L900 429L900 457L900 457L900 486L900 486L900 514L900 514L900 543L900 543L900 571L900 571L900 600L900 600Z" fill="#4aca3a"></path><path d="M682 600L692 600L692 571L650 571L650 543L710 543L710 514L704 514L704 486L642 486L642 457L688 457L688 429L698 429L698 400L661 400L661 371L694 371L694 343L647 343L647 314L693 314L693 286L646 286L646 257L653 257L653 229L655 229L655 200L705 200L705 171L645 171L645 143L696 143L696 114L685 114L685 86L697 86L697 57L677 57L677 29L663 29L663 0L900 0L900 29L900 29L900 57L900 57L900 86L900 86L900 114L900 114L900 143L900 143L900 171L900 171L900 200L900 200L900 229L900 229L900 257L900 257L900 286L900 286L900 314L900 314L900 343L900 343L900 371L900 371L900 400L900 400L900 429L900 429L900 457L900 457L900 486L900 486L900 514L900 514L900 543L900 543L900 571L900 571L900 600L900 600Z" fill="#62d452"></path><path d="M693 600L737 600L737 571L748 571L748 543L754 543L754 514L706 514L706 486L724 486L724 457L693 457L693 429L752 429L752 400L735 400L735 371L741 371L741 343L719 343L719 314L747 314L747 286L704 286L704 257L732 257L732 229L705 229L705 200L696 200L696 171L737 171L737 143L744 143L744 114L749 114L749 86L689 86L689 57L714 57L714 29L729 29L729 0L900 0L900 29L900 29L900 57L900 57L900 86L900 86L900 114L900 114L900 143L900 143L900 171L900 171L900 200L900 200L900 229L900 229L900 257L900 257L900 286L900 286L900 314L900 314L900 343L900 343L900 371L900 371L900 400L900 400L900 429L900 429L900 457L900 457L900 486L900 486L900 514L900 514L900 543L900 543L900 571L900 571L900 600L900 600Z" fill="#77df69"></path><path d="M762 600L797 600L797 571L740 571L740 543L771 543L771 514L775 514L775 486L760 486L760 457L796 457L796 429L767 429L767 400L756 400L756 371L782 371L782 343L795 343L795 314L777 314L777 286L796 286L796 257L741 257L741 229L778 229L778 200L731 200L731 171L778 171L778 143L793 143L793 114L788 114L788 86L761 86L761 57L798 57L798 29L757 29L757 0L900 0L900 29L900 29L900 57L900 57L900 86L900 86L900 114L900 114L900 143L900 143L900 171L900 171L900 200L900 200L900 229L900 229L900 257L900 257L900 286L900 286L900 314L900 314L900 343L900 343L900 371L900 371L900 400L900 400L900 429L900 429L900 457L900 457L900 486L900 486L900 514L900 514L900 543L900 543L900 571L900 571L900 600L900 600Z" fill="#8bea7f"></path><path d="M788 600L840 600L840 571L792 571L792 543L797 543L797 514L823 514L823 486L776 486L776 457L807 457L807 429L815 429L815 400L788 400L788 371L828 371L828 343L844 343L844 314L833 314L833 286L834 286L834 257L801 257L801 229L820 229L820 200L798 200L798 171L846 171L846 143L838 143L838 114L795 114L795 86L790 86L790 57L780 57L780 29L778 29L778 0L900 0L900 29L900 29L900 57L900 57L900 86L900 86L900 114L900 114L900 143L900 143L900 171L900 171L900 200L900 200L900 229L900 229L900 257L900 257L900 286L900 286L900 314L900 314L900 343L900 343L900 371L900 371L900 400L900 400L900 429L900 429L900 457L900 457L900 486L900 486L900 514L900 514L900 543L900 543L900 571L900 571L900 600L900 600Z" fill="#9ff494"></path><path d="M822 600L844 600L844 571L827 571L827 543L880 543L880 514L861 514L861 486L858 486L858 457L840 457L840 429L852 429L852 400L874 400L874 371L882 371L882 343L831 343L831 314L848 314L848 286L874 286L874 257L821 257L821 229L871 229L871 200L849 200L849 171L864 171L864 143L861 143L861 114L888 114L888 86L873 86L873 57L871 57L871 29L827 29L827 0L900 0L900 29L900 29L900 57L900 57L900 86L900 86L900 114L900 114L900 143L900 143L900 171L900 171L900 200L900 200L900 229L900 229L900 257L900 257L900 286L900 286L900 314L900 314L900 343L900 343L900 371L900 371L900 400L900 400L900 429L900 429L900 457L900 457L900 486L900 486L900 514L900 514L900 543L900 543L900 571L900 571L900 600L900 600Z" fill="#b2ffa9"></path></svg>